<?xml version="1.0" encoding="UTF-8"?>
<svg id="Livello_2" data-name="Livello 2" xmlns="http://www.w3.org/2000/svg" viewBox="0 0 1000 449">
  <defs>
    <style>
      .cls-1 {
        fill: #141414;
      }

      .cls-2 {
        fill: #fff;
      }
    </style>
  </defs>
  <g>
    <path class="cls-2" d="M231.44,333.43c8.06-.94,15.83-2.67,23.27-5.06l62.61-183.18-.67-.53-55.92-44.23-.67-.53-163.66,103.02c-.64,7.86-.53,15.9.42,24.04,1.97,16.9,7.34,32.57,15.32,46.43l114-71.75-43.59,127.52c15.38,4.61,31.93,6.25,48.89,4.27Z"/>
    <g>
      <path class="cls-2" d="M466.16,327.47h35.78l-50.43-165.04c-3.44-11.27-13.84-18.96-25.62-18.96h-32.05l-56.22,184h35.78l11.65-38.33h69.28l11.83,38.33ZM394.91,256.68l24.51-80.64,24.89,80.64h-49.4Z"/>
      <path class="cls-2" d="M700.14,200.14c-8.05-9.33-19.96-13.99-35.71-13.99-9.2,0-17.57,2.02-25.11,6.07-7.01,3.76-12.64,8.97-17,15.5-3.27-5.94-7.77-10.84-13.54-14.66-6.94-4.6-15.82-6.9-26.64-6.9-9.46,0-18,2.09-25.62,6.26-5.84,3.19-10.74,7.28-14.76,12.22v-15.16h-30.67v138h35.01v-83.57c0-7.92,2.19-14.37,6.58-19.36,4.39-4.98,10.2-7.47,17.44-7.47s13.52,2.53,17.83,7.6c4.3,5.07,6.45,12.16,6.45,21.27v81.52h21.36c7.4,0,13.39-6,13.39-13.39v-70.17c0-5.28,1-9.94,3-13.99,2-4.04,4.79-7.2,8.37-9.46,3.58-2.26,7.79-3.38,12.65-3.38,7.58,0,13.52,2.53,17.83,7.6,4.3,5.07,6.45,12.16,6.45,21.27v81.52h21.36c7.4,0,13.39-6,13.39-13.39v-77.33c0-15.08-4.02-27.28-12.07-36.61Z"/>
      <path class="cls-2" d="M728.74,166.66v-12.25c0-5.82,4.72-10.55,10.55-10.55h13.66c5.82,0,10.55,4.72,10.55,10.55v12.25c0,5.82-4.72,10.55-10.55,10.55h-13.66c-5.82,0-10.55-4.72-10.55-10.55ZM728.74,327.47v-138h21.36c7.4,0,13.39,6,13.39,13.39v124.6h-34.76Z"/>
      <path class="cls-2" d="M826.57,331.31c-9.88,0-18.25-1.9-25.11-5.69-6.86-3.79-12.06-8.86-15.59-15.21-3.54-6.34-5.3-13.35-5.3-21.02,0-6.39.98-12.22,2.94-17.51,1.96-5.28,5.13-9.94,9.52-13.99,4.39-4.05,10.29-7.43,17.7-10.16,5.11-1.87,11.2-3.53,18.27-4.98,7.07-1.45,15.08-2.83,24.02-4.15,8.94-1.32,18.78-2.79,29.52-4.41l-12.52,6.9c0-8.18-1.96-14.18-5.88-18.02-3.92-3.83-10.48-5.75-19.68-5.75-5.11,0-10.44,1.24-15.97,3.7-5.54,2.47-9.41,6.86-11.63,13.16l-31.43-9.97c3.49-11.42,10.05-20.7,19.68-27.86,9.63-7.16,22.74-10.73,39.36-10.73,12.18,0,23,1.88,32.46,5.62,9.46,3.75,16.61,10.22,21.47,19.42,2.72,5.11,4.34,10.22,4.85,15.34.51,5.11.77,10.82.77,17.12v84.33h-17.02c-7.4,0-13.39-6-13.39-13.39v-14.97l4.34,5.88c-6.73,9.28-13.99,15.99-21.79,20.13-7.79,4.13-17.66,6.2-29.58,6.2ZM833.98,303.96c6.39,0,11.78-1.13,16.16-3.39,4.39-2.26,7.88-4.83,10.48-7.73,2.6-2.9,4.36-5.32,5.3-7.29,1.79-3.75,2.83-8.11,3.13-13.1.3-4.98.45-9.13.45-12.46l10.22,2.56c-10.31,1.71-18.66,3.13-25.04,4.28-6.39,1.15-11.54,2.19-15.46,3.13-3.92.94-7.37,1.96-10.35,3.07-3.41,1.36-6.15,2.83-8.24,4.41-2.09,1.58-3.62,3.3-4.6,5.18-.98,1.87-1.47,3.96-1.47,6.26,0,3.15.79,5.86,2.36,8.11,1.57,2.26,3.81,3.98,6.71,5.18,2.89,1.19,6.35,1.79,10.35,1.79Z"/>
    </g>
  </g>
  <g>
    <path class="cls-1" d="M231.44,333.43c8.06-.94,15.83-2.67,23.27-5.06l62.61-183.18-.67-.53-55.92-44.23-.67-.53-163.66,103.02c-.64,7.86-.53,15.9.42,24.04,1.97,16.9,7.34,32.57,15.32,46.43l114-71.75-43.59,127.52c15.38,4.61,31.93,6.25,48.89,4.27Z"/>
    <g>
      <path class="cls-1" d="M466.16,327.47h35.78l-50.43-165.04c-3.44-11.27-13.84-18.96-25.62-18.96h-32.05l-56.22,184h35.78l11.65-38.33h69.28l11.83,38.33ZM394.91,256.68l24.51-80.64,24.89,80.64h-49.4Z"/>
      <path class="cls-1" d="M700.14,200.14c-8.05-9.33-19.96-13.99-35.71-13.99-9.2,0-17.57,2.02-25.11,6.07-7.01,3.76-12.64,8.97-17,15.5-3.27-5.94-7.77-10.84-13.54-14.66-6.94-4.6-15.82-6.9-26.64-6.9-9.46,0-18,2.09-25.62,6.26-5.84,3.19-10.74,7.28-14.76,12.22v-15.16h-30.67v138h35.01v-83.57c0-7.92,2.19-14.37,6.58-19.36,4.39-4.98,10.2-7.47,17.44-7.47s13.52,2.53,17.83,7.6c4.3,5.07,6.45,12.16,6.45,21.27v81.52h21.36c7.4,0,13.39-6,13.39-13.39v-70.17c0-5.28,1-9.94,3-13.99,2-4.04,4.79-7.2,8.37-9.46,3.58-2.26,7.79-3.38,12.65-3.38,7.58,0,13.52,2.53,17.83,7.6,4.3,5.07,6.45,12.16,6.45,21.27v81.52h21.36c7.4,0,13.39-6,13.39-13.39v-77.33c0-15.08-4.02-27.28-12.07-36.61Z"/>
      <path class="cls-1" d="M728.74,166.66v-12.25c0-5.82,4.72-10.55,10.55-10.55h13.66c5.82,0,10.55,4.72,10.55,10.55v12.25c0,5.82-4.72,10.55-10.55,10.55h-13.66c-5.82,0-10.55-4.72-10.55-10.55ZM728.74,327.47v-138h21.36c7.4,0,13.39,6,13.39,13.39v124.6h-34.76Z"/>
      <path class="cls-1" d="M826.57,331.31c-9.88,0-18.25-1.9-25.11-5.69-6.86-3.79-12.06-8.86-15.59-15.21-3.54-6.34-5.3-13.35-5.3-21.02,0-6.39.98-12.22,2.94-17.51,1.96-5.28,5.13-9.94,9.52-13.99,4.39-4.05,10.29-7.43,17.7-10.16,5.11-1.87,11.2-3.53,18.27-4.98,7.07-1.45,15.08-2.83,24.02-4.15,8.94-1.32,18.78-2.79,29.52-4.41l-12.52,6.9c0-8.18-1.96-14.18-5.88-18.02-3.92-3.83-10.48-5.75-19.68-5.75-5.11,0-10.44,1.24-15.97,3.7-5.54,2.47-9.41,6.86-11.63,13.16l-31.43-9.97c3.49-11.42,10.05-20.7,19.68-27.86,9.63-7.16,22.74-10.73,39.36-10.73,12.18,0,23,1.88,32.46,5.62,9.46,3.75,16.61,10.22,21.47,19.42,2.72,5.11,4.34,10.22,4.85,15.34.51,5.11.77,10.82.77,17.12v84.33h-17.02c-7.4,0-13.39-6-13.39-13.39v-14.97l4.34,5.88c-6.73,9.28-13.99,15.99-21.79,20.13-7.79,4.13-17.66,6.2-29.58,6.2ZM833.98,303.96c6.39,0,11.78-1.13,16.16-3.39,4.39-2.26,7.88-4.83,10.48-7.73,2.6-2.9,4.36-5.32,5.3-7.29,1.79-3.75,2.83-8.11,3.13-13.1.3-4.98.45-9.13.45-12.46l10.22,2.56c-10.31,1.71-18.66,3.13-25.04,4.28-6.39,1.15-11.54,2.19-15.46,3.13-3.92.94-7.37,1.96-10.35,3.07-3.41,1.36-6.15,2.83-8.24,4.41-2.09,1.58-3.62,3.3-4.6,5.18-.98,1.87-1.47,3.96-1.47,6.26,0,3.15.79,5.86,2.36,8.11,1.57,2.26,3.81,3.98,6.71,5.18,2.89,1.19,6.35,1.79,10.35,1.79Z"/>
    </g>
  </g>
</svg>